<svg width="32" height="32" viewBox="0 0 32 32" fill="none" xmlns="http://www.w3.org/2000/svg">
<path d="M6.67578 9.24412C6.73307 7.7328 7.60145 6.36565 8.71745 5.24964C10.5747 3.39238 13.5379 3.64192 14.7172 5.75489L15.5825 7.30547C16.3635 8.70478 16.05 10.5404 14.82 11.7704M22.7563 25.3246C24.2676 25.2673 25.6347 24.3989 26.7507 23.2829C28.608 21.4257 28.3585 18.4624 26.2455 17.2832L24.6949 16.4179C23.2956 15.6369 21.4599 15.9504 20.23 17.1804" stroke="white" stroke-width="2"/>
<path d="M6.67548 9.24414C6.57903 11.7883 7.22292 16.109 11.557 20.4431C15.8911 24.7772 20.2118 25.4211 22.756 25.3246M20.2297 17.1804C20.2297 17.1804 18.7377 18.6723 16.0328 15.9673C13.3278 13.2624 14.8197 11.7704 14.8197 11.7704" stroke="white" stroke-width="2"/>
</svg>
