<svg width="24" height="24" viewBox="0 0 24 24" fill="none" xmlns="http://www.w3.org/2000/svg">
<path d="M19.1519 4.12433L2.85188 10.4243C1.75188 10.8243 1.75188 11.5243 2.65188 11.7243L6.75188 13.0243L8.35188 17.8243C8.55188 18.3243 8.45188 18.5243 8.95188 18.5243C9.35188 18.5243 9.55188 18.3243 9.75188 18.1243C9.85188 18.0243 10.7519 17.1243 11.7519 16.1243L15.9519 19.2243C16.7519 19.6243 17.2519 19.4243 17.4519 18.5243L20.2519 5.42433C20.5519 4.32433 19.8519 3.72433 19.1519 4.12433ZM17.0519 7.12433L9.25188 14.2243L8.95188 17.5243L7.35188 12.7243L16.5519 6.92433C16.9519 6.62433 17.3519 6.82433 17.0519 7.12433Z" fill="#030303"/>
</svg>
