<svg width="157" height="62" viewBox="0 0 157 62" fill="none" xmlns="http://www.w3.org/2000/svg">
<path d="M64.6471 14.6803V18.3692H53.4281V23.4909H63.6411V27.0274H53.4281V36.3867H49.3124V14.6803H64.6471ZM83.8893 30.6248L84.0723 33.8563C84.0926 34.8929 84.3161 35.7363 84.743 36.3867H80.5053C80.1395 35.777 79.9464 34.9132 79.9261 33.7954L79.8346 31.4174C79.7737 30.0963 79.4688 29.1817 78.92 28.6736C78.3916 28.1452 77.538 27.881 76.3592 27.881H70.9935V36.3867H66.8779V14.6803H76.725C79.1436 14.6803 81.0236 15.2291 82.365 16.3266C83.7064 17.4241 84.3771 18.918 84.3771 20.8081C84.3771 23.4096 83.1678 25.1372 80.7492 25.9908C81.8467 26.3363 82.6292 26.8851 83.0967 27.6371C83.5845 28.3688 83.8487 29.3647 83.8893 30.6248ZM70.9935 18.0643V24.6494H76.4811C77.6396 24.6494 78.5339 24.3649 79.1639 23.7958C79.8143 23.2064 80.1395 22.3629 80.1395 21.2654C80.1395 20.2289 79.8041 19.4362 79.1334 18.8875C78.4831 18.3387 77.5481 18.0643 76.3287 18.0643H70.9935ZM106.584 36.3867H102.224L100.517 31.6003H91.0053L89.3286 36.3867H85.0909L93.3528 14.6803H98.1696L106.584 36.3867ZM93.0784 25.7469L92.2553 28.0944H99.2672L98.4135 25.7469C97.7022 23.9381 96.8079 21.4585 95.7307 18.3082C94.8771 20.8284 93.993 23.308 93.0784 25.7469ZM121.677 25.0153L125.305 14.6803H131.28V36.3867H127.348V29.7711C127.348 25.7063 127.388 22.119 127.47 19.0094C127.022 20.5337 126.474 22.2003 125.823 24.0092L121.433 36.3867H118.049L113.629 24.0092C112.856 21.7532 112.318 20.1069 112.013 19.0704C112.094 22.1597 112.135 25.7266 112.135 29.7711V36.3867H108.172V14.6803H114.147L117.897 25.2287C118.141 25.94 118.761 27.9013 119.756 31.1126C120.407 28.8566 121.047 26.8241 121.677 25.0153ZM152.651 33.7649C150.66 35.838 148.038 36.8745 144.786 36.8745C141.534 36.8745 138.912 35.838 136.92 33.7649C134.929 31.6715 133.933 28.9277 133.933 25.5335C133.933 22.1394 134.929 19.3956 136.92 17.3022C138.912 15.2291 141.534 14.1925 144.786 14.1925C148.038 14.1925 150.66 15.2291 152.651 17.3022C154.623 19.3549 155.609 22.0987 155.609 25.5335C155.609 28.9683 154.623 31.7121 152.651 33.7649ZM138.231 25.5335C138.231 27.9115 138.831 29.7915 140.03 31.1735C141.229 32.5556 142.814 33.2466 144.786 33.2466C146.778 33.2466 148.373 32.5556 149.572 31.1735C150.751 29.8118 151.34 27.9318 151.34 25.5335C151.34 23.1353 150.751 21.2553 149.572 19.8935C148.373 18.5115 146.778 17.8204 144.786 17.8204C142.814 17.8204 141.229 18.5115 140.03 19.8935C138.831 21.2756 138.231 23.1556 138.231 25.5335Z" fill="#030303"/>
<path d="M48.1891 42.4944H50.8311C51.9753 42.4944 52.8768 42.8238 53.5355 43.4826C54.1804 44.1413 54.5029 45.0463 54.5029 46.1974C54.5029 47.3485 54.1804 48.2535 53.5355 48.9122C52.8768 49.571 51.9753 49.9004 50.8311 49.9004H48.1891V42.4944ZM49.3021 48.9226H50.8207C51.632 48.9226 52.2527 48.6869 52.6826 48.2153C53.1195 47.7438 53.3379 47.0711 53.3379 46.1974C53.3379 45.3237 53.1195 44.651 52.6826 44.1795C52.2527 43.7079 51.632 43.4722 50.8207 43.4722H49.3021V48.9226ZM58.1475 50.0668C57.1697 50.0668 56.4069 49.8449 55.8591 49.4011C55.3182 48.9573 55.0443 48.3089 55.0374 47.456H56.1503C56.1711 48.5655 56.8438 49.1203 58.1683 49.1203C58.7161 49.1203 59.1356 49.0162 59.4269 48.8082C59.725 48.5932 59.8741 48.2847 59.8741 47.8825C59.8741 47.5566 59.7528 47.3069 59.5101 47.1336C59.2674 46.9533 58.8305 46.7938 58.1995 46.6551L57.565 46.5199C56.8022 46.3673 56.2266 46.1177 55.8383 45.7709C55.45 45.4242 55.2558 44.9457 55.2558 44.3355C55.2558 43.7253 55.4916 43.2399 55.9631 42.8793C56.4347 42.5117 57.0726 42.328 57.877 42.328C58.8478 42.328 59.576 42.536 60.0614 42.9521C60.5537 43.3682 60.8068 43.9402 60.8207 44.6684H59.7181C59.6834 44.1899 59.5239 43.8397 59.2396 43.6178C58.9623 43.389 58.5115 43.2745 57.8874 43.2745C57.402 43.2745 57.031 43.3647 56.7744 43.545C56.5179 43.7253 56.3896 43.9818 56.3896 44.3147C56.3896 44.6545 56.504 44.9111 56.7328 45.0844C56.9617 45.2717 57.3847 45.4311 58.0018 45.5629L58.6467 45.6981C59.4927 45.8784 60.0995 46.1385 60.467 46.4782C60.8415 46.818 61.0287 47.2757 61.0287 47.8513C61.0287 48.5378 60.7721 49.0787 60.259 49.4739C59.7528 49.8692 59.0489 50.0668 58.1475 50.0668ZM65.3655 46.9567V46.0102H68.59V49.9004H67.7371L67.5394 48.9122C66.9847 49.682 66.1803 50.0668 65.1262 50.0668C64.0583 50.0668 63.2089 49.7097 62.5778 48.9954C61.9329 48.2881 61.6105 47.3555 61.6105 46.1974C61.6105 45.0255 61.9364 44.0893 62.5882 43.389C63.2331 42.6816 64.0999 42.328 65.1886 42.328C66.0971 42.328 66.8494 42.5638 67.4458 43.0353C68.0352 43.5138 68.3889 44.1483 68.5068 44.9388H67.3626C67.2586 44.4395 67.0089 44.0443 66.6137 43.753C66.2253 43.4618 65.7538 43.3161 65.1991 43.3161C64.4571 43.3161 63.8676 43.5762 63.4308 44.0963C62.987 44.6094 62.7651 45.3098 62.7651 46.1974C62.7651 47.085 62.987 47.7854 63.4308 48.2985C63.8815 48.8186 64.4779 49.0787 65.2199 49.0787C65.8648 49.0787 66.4091 48.8776 66.8529 48.4754C67.2967 48.0801 67.529 47.5739 67.5498 46.9567H65.3655ZM74.7466 44.7412V42.4944H75.8179V49.9004H74.5385L72.2606 46.3118C71.5949 45.2717 71.1129 44.4777 70.8147 43.9298C70.8425 44.755 70.8563 45.9963 70.8563 47.6536V49.9004H69.7746V42.4944H71.054L73.3423 46.083C73.9595 47.0607 74.4414 47.8582 74.7882 48.4754C74.7604 47.6432 74.7466 46.3985 74.7466 44.7412ZM81.9778 50.0668C81.0001 50.0668 80.2373 49.8449 79.6895 49.4011C79.1486 48.9573 78.8747 48.3089 78.8677 47.456H79.9807C80.0015 48.5655 80.6741 49.1203 81.9986 49.1203C82.5464 49.1203 82.966 49.0162 83.2572 48.8082C83.5554 48.5932 83.7045 48.2847 83.7045 47.8825C83.7045 47.5566 83.5831 47.3069 83.3404 47.1336C83.0977 46.9533 82.6609 46.7938 82.0298 46.6551L81.3953 46.5199C80.6325 46.3673 80.057 46.1177 79.6686 45.7709C79.2803 45.4242 79.0862 44.9457 79.0862 44.3355C79.0862 43.7253 79.3219 43.2399 79.7935 42.8793C80.265 42.5117 80.903 42.328 81.7074 42.328C82.6782 42.328 83.4063 42.536 83.8917 42.9521C84.3841 43.3682 84.6372 43.9402 84.651 44.6684H83.5485C83.5138 44.1899 83.3543 43.8397 83.07 43.6178C82.7926 43.389 82.3419 43.2745 81.7178 43.2745C81.2324 43.2745 80.8614 43.3647 80.6048 43.545C80.3482 43.7253 80.2199 43.9818 80.2199 44.3147C80.2199 44.6545 80.3344 44.9111 80.5632 45.0844C80.792 45.2717 81.215 45.4311 81.8322 45.5629L82.4771 45.6981C83.3231 45.8784 83.9299 46.1385 84.2974 46.4782C84.6718 46.818 84.8591 47.2757 84.8591 47.8513C84.8591 48.5378 84.6025 49.0787 84.0894 49.4739C83.5831 49.8692 82.8793 50.0668 81.9778 50.0668ZM84.828 42.4944H90.8713V43.493H88.4165V49.9004H87.2827V43.493H84.828V42.4944ZM96.6295 49.2971C96.1025 49.8033 95.3675 50.0564 94.4244 50.0564C93.4813 50.0564 92.7462 49.8033 92.2192 49.2971C91.6922 48.7839 91.4287 48.0628 91.4287 47.1336V42.4944H92.5417V47.144C92.5417 47.7819 92.7012 48.2639 93.0201 48.5898C93.3461 48.9157 93.8141 49.0787 94.4244 49.0787C95.0346 49.0787 95.4992 48.9157 95.8182 48.5898C96.1441 48.2639 96.3071 47.7819 96.3071 47.144V42.4944H97.4201V47.1336C97.4201 48.0628 97.1565 48.7839 96.6295 49.2971ZM98.6026 42.4944H101.245C102.389 42.4944 103.29 42.8238 103.949 43.4826C104.594 44.1413 104.916 45.0463 104.916 46.1974C104.916 47.3485 104.594 48.2535 103.949 48.9122C103.29 49.571 102.389 49.9004 101.245 49.9004H98.6026V42.4944ZM99.7156 48.9226H101.234C102.046 48.9226 102.666 48.6869 103.096 48.2153C103.533 47.7438 103.751 47.0711 103.751 46.1974C103.751 45.3237 103.533 44.651 103.096 44.1795C102.666 43.7079 102.046 43.4722 101.234 43.4722H99.7156V48.9226ZM107.009 49.9004H105.896V42.4944H107.009V49.9004ZM111.611 50.0668C110.515 50.0668 109.642 49.7097 108.99 48.9954C108.324 48.2881 107.991 47.3555 107.991 46.1974C107.991 45.0463 108.324 44.1101 108.99 43.389C109.642 42.6816 110.515 42.328 111.611 42.328C112.693 42.328 113.567 42.6816 114.232 43.389C114.891 44.1101 115.22 45.0463 115.22 46.1974C115.22 47.3485 114.891 48.2812 114.232 48.9954C113.567 49.7097 112.693 50.0668 111.611 50.0668ZM109.822 48.2881C110.266 48.8082 110.862 49.0683 111.611 49.0683C112.36 49.0683 112.956 48.8082 113.4 48.2881C113.844 47.7819 114.066 47.085 114.066 46.1974C114.066 45.3098 113.844 44.6094 113.4 44.0963C112.949 43.5831 112.353 43.3265 111.611 43.3265C110.869 43.3265 110.273 43.5831 109.822 44.0963C109.371 44.6233 109.146 45.3237 109.146 46.1974C109.146 47.0781 109.371 47.775 109.822 48.2881Z" fill="#566271"/>
<path fill-rule="evenodd" clip-rule="evenodd" d="M17.1769 62C10.3779 51.3116 9.76175 40.6229 18.5911 29.9347C22.6587 25.4203 27.4577 22.9488 32.7375 21.8169C37.3051 33.5192 15.21 33.323 17.1769 62Z" fill="#030303"/>
<path fill-rule="evenodd" clip-rule="evenodd" d="M7.67912 41.9082C4.96781 36.5808 7.61201 28.9195 7.57821 22.4253C6.94742 17.3168 4.67204 13.97 0 13.1913C4.96159 7.31678 9.21882 10.5331 13.2367 16.8443C21.5822 10.9719 33.4173 7.43508 39.2046 -0.000114441C44.2499 20.146 14.7555 15.1191 7.67912 41.9082Z" fill="#030303"/>
</svg>
