<svg width="160" height="64" viewBox="0 0 160 64" fill="none" xmlns="http://www.w3.org/2000/svg">
<path d="M66.0979 15.5951V19.3555H54.6612V24.5766H65.0723V28.1817H54.6612V37.7227H50.4656V15.5951H66.0979ZM85.7135 31.8489L85.9 35.1432C85.9207 36.1998 86.1486 37.0597 86.5837 37.7227H82.2638C81.8909 37.1011 81.6941 36.2205 81.6733 35.081L81.5801 32.6569C81.518 31.3102 81.2072 30.3779 80.6478 29.8599C80.1091 29.3212 79.2389 29.0519 78.0372 29.0519H72.5675V37.7227H68.3719V15.5951H78.4101C80.8757 15.5951 82.7922 16.1545 84.1596 17.2733C85.527 18.3921 86.2107 19.9149 86.2107 21.8418C86.2107 24.4938 84.978 26.2548 82.5124 27.125C83.6313 27.4773 84.4289 28.0367 84.9055 28.8032C85.4027 29.5491 85.6721 30.5643 85.7135 31.8489ZM72.5675 19.0447V25.7576H78.1615C79.3425 25.7576 80.2541 25.4675 80.8964 24.8874C81.5594 24.2866 81.8909 23.4267 81.8909 22.3079C81.8909 21.2513 81.549 20.4432 80.8653 19.8838C80.2023 19.3244 79.2493 19.0447 78.0061 19.0447H72.5675ZM108.848 37.7227H104.404L102.664 32.8434H92.9675L91.2583 37.7227H86.9384L95.3606 15.5951H100.271L108.848 37.7227ZM95.0809 26.8764L94.2418 29.2694H101.39L100.52 26.8764C99.7944 25.0324 98.8827 22.5048 97.7847 19.2934C96.9145 21.8625 96.0132 24.3902 95.0809 26.8764ZM124.235 26.1305L127.933 15.5951H134.024V37.7227H130.015V30.9787C130.015 26.835 130.056 23.1781 130.139 20.0082C129.684 21.5621 129.124 23.261 128.461 25.105L123.986 37.7227H120.536L116.03 25.105C115.243 22.8052 114.694 21.127 114.383 20.0703C114.466 23.2196 114.507 26.8557 114.507 30.9787V37.7227H110.467V15.5951H116.558L120.381 26.3481C120.629 27.0732 121.261 29.0726 122.277 32.3461C122.94 30.0464 123.592 27.9745 124.235 26.1305ZM155.81 35.0499C153.779 37.1633 151.107 38.2199 147.792 38.2199C144.477 38.2199 141.804 37.1633 139.774 35.0499C137.743 32.9159 136.728 30.1189 136.728 26.6589C136.728 23.1988 137.743 20.4018 139.774 18.2678C141.804 16.1545 144.477 15.0978 147.792 15.0978C151.107 15.0978 153.779 16.1545 155.81 18.2678C157.82 20.3604 158.824 23.1574 158.824 26.6589C158.824 30.1603 157.82 32.9574 155.81 35.0499ZM141.11 26.6589C141.11 29.083 141.721 30.9994 142.944 32.4083C144.166 33.8172 145.782 34.5216 147.792 34.5216C149.822 34.5216 151.449 33.8172 152.671 32.4083C153.873 31.0202 154.473 29.1037 154.473 26.6589C154.473 24.2141 153.873 22.2976 152.671 20.9094C151.449 19.5005 149.822 18.7961 147.792 18.7961C145.782 18.7961 144.166 19.5005 142.944 20.9094C141.721 22.3183 141.11 24.2348 141.11 26.6589Z" fill="white"/>
<path d="M49.3205 43.6695H52.0138C53.1802 43.6695 54.0991 44.0053 54.7707 44.6769C55.4281 45.3484 55.7568 46.2709 55.7568 47.4444C55.7568 48.6178 55.4281 49.5404 54.7707 50.2119C54.0991 50.8835 53.1802 51.2192 52.0138 51.2192H49.3205V43.6695ZM50.4551 50.2225H52.0032C52.8303 50.2225 53.4629 49.9822 53.9012 49.5015C54.3466 49.0208 54.5692 48.3351 54.5692 47.4444C54.5692 46.5537 54.3466 45.868 53.9012 45.3873C53.4629 44.9066 52.8303 44.6663 52.0032 44.6663H50.4551V50.2225ZM59.4721 51.3889C58.4754 51.3889 57.6978 51.1627 57.1393 50.7103C56.588 50.2579 56.3087 49.5969 56.3017 48.7274H57.4362C57.4574 49.8585 58.1431 50.424 59.4933 50.424C60.0518 50.424 60.4794 50.3179 60.7763 50.1059C61.0803 49.8867 61.2323 49.5722 61.2323 49.1622C61.2323 48.8299 61.1086 48.5754 60.8612 48.3987C60.6138 48.2149 60.1684 48.0523 59.5251 47.9109L58.8783 47.7731C58.1007 47.6176 57.514 47.3631 57.1181 47.0097C56.7223 46.6562 56.5243 46.1684 56.5243 45.5464C56.5243 44.9243 56.7647 44.4295 57.2454 44.0619C57.7261 43.6872 58.3764 43.4999 59.1964 43.4999C60.1861 43.4999 60.9283 43.712 61.4232 44.1361C61.925 44.5602 62.1831 45.1434 62.1972 45.8857H61.0732C61.0379 45.3979 60.8753 45.0409 60.5855 44.8147C60.3027 44.5814 59.8432 44.4648 59.207 44.4648C58.7122 44.4648 58.334 44.5567 58.0724 44.7405C57.8109 44.9243 57.6801 45.1858 57.6801 45.5252C57.6801 45.8715 57.7968 46.1331 58.03 46.3098C58.2633 46.5007 58.6945 46.6633 59.3237 46.7976L59.9811 46.9354C60.8435 47.1192 61.462 47.3843 61.8367 47.7307C62.2184 48.0771 62.4093 48.5436 62.4093 49.1303C62.4093 49.8302 62.1477 50.3816 61.6246 50.7845C61.1086 51.1874 60.3911 51.3889 59.4721 51.3889ZM66.8302 48.2184V47.2535H70.1173V51.2192H69.2478L69.0463 50.2119C68.4808 50.9966 67.6608 51.3889 66.5863 51.3889C65.4977 51.3889 64.6317 51.0248 63.9885 50.2967C63.331 49.5757 63.0023 48.6249 63.0023 47.4444C63.0023 46.2497 63.3346 45.2954 63.9991 44.5814C64.6565 43.8604 65.5401 43.4999 66.6499 43.4999C67.576 43.4999 68.343 43.7402 68.9509 44.2209C69.5518 44.7087 69.9123 45.3555 70.0324 46.1614H68.8661C68.76 45.6524 68.5055 45.2495 68.1026 44.9526C67.7067 44.6557 67.2261 44.5072 66.6605 44.5072C65.9041 44.5072 65.3033 44.7723 64.8579 45.3025C64.4055 45.8256 64.1793 46.5396 64.1793 47.4444C64.1793 48.3492 64.4055 49.0632 64.8579 49.5863C65.3174 50.1165 65.9254 50.3816 66.6817 50.3816C67.3392 50.3816 67.8941 50.1766 68.3465 49.7666C68.7989 49.3636 69.0357 48.8476 69.0569 48.2184H66.8302ZM76.3933 45.9599V43.6695H77.4855V51.2192H76.1812L73.8591 47.561C73.1804 46.5007 72.6891 45.6913 72.3852 45.1328C72.4135 45.974 72.4276 47.2394 72.4276 48.9289V51.2192H71.3248V43.6695H72.6291L74.9618 47.3278C75.591 48.3245 76.0823 49.1374 76.4357 49.7666C76.4074 48.9183 76.3933 47.6494 76.3933 45.9599ZM83.7649 51.3889C82.7682 51.3889 81.9906 51.1627 81.4321 50.7103C80.8807 50.2579 80.6015 49.5969 80.5944 48.7274H81.729C81.7502 49.8585 82.4359 50.424 83.7861 50.424C84.3445 50.424 84.7722 50.3179 85.0691 50.1059C85.3731 49.8867 85.5251 49.5722 85.5251 49.1622C85.5251 48.8299 85.4014 48.5754 85.1539 48.3987C84.9065 48.2149 84.4612 48.0523 83.8179 47.9109L83.1711 47.7731C82.3935 47.6176 81.8068 47.3631 81.4109 47.0097C81.015 46.6562 80.8171 46.1684 80.8171 45.5464C80.8171 44.9243 81.0575 44.4295 81.5381 44.0619C82.0188 43.6872 82.6692 43.4999 83.4892 43.4999C84.4789 43.4999 85.2211 43.712 85.7159 44.1361C86.2178 44.5602 86.4758 45.1434 86.49 45.8857H85.366C85.3307 45.3979 85.1681 45.0409 84.8782 44.8147C84.5955 44.5814 84.136 44.4648 83.4998 44.4648C83.005 44.4648 82.6268 44.5567 82.3652 44.7405C82.1037 44.9243 81.9729 45.1858 81.9729 45.5252C81.9729 45.8715 82.0895 46.1331 82.3228 46.3098C82.5561 46.5007 82.9873 46.6633 83.6164 46.7976L84.2738 46.9354C85.1363 47.1192 85.7548 47.3843 86.1295 47.7307C86.5112 48.0771 86.7021 48.5436 86.7021 49.1303C86.7021 49.8302 86.4405 50.3816 85.9174 50.7845C85.4014 51.1874 84.6839 51.3889 83.7649 51.3889ZM86.6703 43.6695H92.831V44.6875H90.3285V51.2192H89.1727V44.6875H86.6703V43.6695ZM98.7009 50.6042C98.1637 51.1203 97.4143 51.3783 96.453 51.3783C95.4916 51.3783 94.7423 51.1203 94.205 50.6042C93.6678 50.0811 93.3992 49.346 93.3992 48.3987V43.6695H94.5337V48.4093C94.5337 49.0597 94.6963 49.551 95.0215 49.8832C95.3537 50.2154 95.8309 50.3816 96.453 50.3816C97.075 50.3816 97.5487 50.2154 97.8738 49.8832C98.2061 49.551 98.3722 49.0597 98.3722 48.4093V43.6695H99.5068V48.3987C99.5068 49.346 99.2381 50.0811 98.7009 50.6042ZM100.712 43.6695H103.406C104.572 43.6695 105.491 44.0053 106.162 44.6769C106.82 45.3484 107.149 46.2709 107.149 47.4444C107.149 48.6178 106.82 49.5404 106.162 50.2119C105.491 50.8835 104.572 51.2192 103.406 51.2192H100.712V43.6695ZM101.847 50.2225H103.395C104.222 50.2225 104.855 49.9822 105.293 49.5015C105.738 49.0208 105.961 48.3351 105.961 47.4444C105.961 46.5537 105.738 45.868 105.293 45.3873C104.855 44.9066 104.222 44.6663 103.395 44.6663H101.847V50.2225ZM109.282 51.2192H108.147V43.6695H109.282V51.2192ZM113.973 51.3889C112.856 51.3889 111.966 51.0248 111.301 50.2967C110.622 49.5757 110.283 48.6249 110.283 47.4444C110.283 46.2709 110.622 45.3166 111.301 44.5814C111.966 43.8604 112.856 43.4999 113.973 43.4999C115.076 43.4999 115.967 43.8604 116.645 44.5814C117.317 45.3166 117.653 46.2709 117.653 47.4444C117.653 48.6178 117.317 49.5686 116.645 50.2967C115.967 51.0248 115.076 51.3889 113.973 51.3889ZM112.149 49.5757C112.602 50.1059 113.21 50.371 113.973 50.371C114.737 50.371 115.345 50.1059 115.797 49.5757C116.249 49.0597 116.476 48.3492 116.476 47.4444C116.476 46.5396 116.249 45.8256 115.797 45.3025C115.337 44.7794 114.73 44.5178 113.973 44.5178C113.217 44.5178 112.609 44.7794 112.149 45.3025C111.69 45.8397 111.46 46.5537 111.46 47.4444C111.46 48.3422 111.69 49.0526 112.149 49.5757Z" fill="white"/>
<path fill-rule="evenodd" clip-rule="evenodd" d="M17.5817 64C10.6226 52.9668 9.992 41.9333 19.0292 30.9003C23.1926 26.2403 28.1046 23.6891 33.5086 22.5206C38.1838 34.6004 15.5685 34.3979 17.5817 64Z" fill="white"/>
<path fill-rule="evenodd" clip-rule="evenodd" d="M7.85991 43.2601C5.08476 37.7608 7.79122 29.8524 7.75662 23.1487C7.11098 17.8754 4.78203 14.4206 0 13.6168C5.0784 7.55278 9.43585 10.8728 13.5483 17.3877C22.0903 11.3258 34.2041 7.67489 40.1275 -0.000148773C45.2917 20.7958 15.1029 15.6068 7.85991 43.2601Z" fill="white"/>
</svg>
